<svg version="1.1" xmlns="http://www.w3.org/2000/svg" width="32" height="32" viewBox="0 0 1280 1280">
<style>
  :root { color-scheme: light dark;
          fill: currentColor }
</style>
<g transform="translate(0,80)">
  <path d="m138.7 1.543c-82.72 10.76-135.6 94.59-138.4 219.5-0.7574 26.78-0.2484 30.27 4.767 38.28 11.28 18.02 14.29 18.76 87.98 19.52l65.67 0.756v360.8c0 235.2 1.006 366.6 2.508 377.1 8.268 51.8 49.63 92.58 101.5 100.1 23.56 3.259 650.5 3.259 674.3 0 51.4-7.262 94.25-50.04 101.5-101.3 1.254-9.766 2.508-79.57 2.508-157.6v-140.1l-79.97 79.83-0.744 109.1c-0.76 108.1-0.76 108.9-6.27 116.6-12.28 17.01 12.54 16.01-354.2 16.01-366.7 0-341.9 1.004-354.2-16.01l-5.512-7.758-1.502-427.9c-1.006-327.5-2.011-431.1-4.506-441.4-6.517-28.53-20.31-49.79-38.36-59.31-3.762-2.008-12.79-4.498-20.05-5.75-8.02-1.252 124.8-2.256 335.4-2.503 340.2-0.248 349.2-0.248 364.7 4.759 28.58 8.761 49.38 24.28 65.42 48.54 19.06 29.53 19.55 32.78 19.55 157.4v110.6l80.72-80.08-1.254-75.07c-1.006-66.31-1.75-77.31-6.517-95.08-18.55-70.56-72.44-124.4-144.4-144.4l-20.05-5.75-358.5-0.248c-197.1-0.2748-364.8 0.4824-372.3 1.486z"/>
  <path d="m1151 282.1c-13.28 2.999-27.08 13.26-50.64 37.03l-20.05 20.27 70.69 70.31 70.44 70.56 24.32-24.52c27.57-28.03 34.6-39.53 34.6-57.55 0.248-23.52-3.513-29.53-43.11-69.56-20.06-20.52-40.61-39.28-45.37-41.79-11.28-5.515-28.59-7.77-40.87-4.759z"/>
  <path d="m467.3 322.1c-5.512 1.747-18.55 12.52-38.1 31.53l-29.58 28.77-10.53-9.009c-6.021-5.007-15.05-10.26-20.31-11.76-28.33-7.51-54.65 19.52-46.88 48.29 4.01 15.52 51.38 62.8 66.93 66.81 20.56 5.75 26.57 2.008 73.44-44.04 50.13-49.05 55.41-56.3 55.65-72.57 0.5096-27-24.56-45.78-50.63-38.02z"/>
  <path d="m588.1 362.1c-11.02 3.246-22.56 15.52-25.82 27.52-5.512 20.01 7.275 41.79 27.57 47.29 6.518 1.747 52.9 2.504 135.9 2.008 124.6-0.756 126.1-0.756 134.9-6.258 11.78-7.262 18.55-19.27 18.55-33.29 0-14.02-6.766-26.02-18.55-33.29-8.777-5.502-10.03-5.502-136.6-6.01-73.68-0.236-131.1 0.5216-135.8 2.021z"/>
  <path d="m889.2 530c-88.49 88.58-162.9 164.1-165.7 168.4-7.014 10.26-80.97 172.7-82.73 181.7-2.012 10.01 7.771 28.77 17.8 34.03 15.79 8.253 22.8 6.258 109.3-33.02 44.88-20.52 85.98-40.29 91.49-44.04 5.512-3.755 82.72-79.07 171.5-167.4l161.4-160.6-69.94-69.82c-38.36-38.28-70.44-69.82-71.2-69.82-0.744 0-73.69 72.31-161.9 160.6zm-95.01 237.2c17.8 17.77 31.84 33.02 31.09 33.78-0.76 0.752-18.8 9.257-39.86 18.76l-38.61 17.77-12.03-12.27-12.28-12.01 14.29-31.28c7.771-17.01 15.79-34.78 17.54-39.28 2.012-4.25 4.519-8.005 5.512-8.005 1.018 0 16.55 14.51 34.35 32.53z"/>
  <path d="m467.3 522.3c-5.512 1.747-18.55 12.52-38.1 31.53l-29.58 28.79-10.53-9.009c-6.021-5.006-15.05-10.26-20.31-11.76-28.33-7.51-54.65 19.52-46.88 48.29 4.01 15.52 51.38 62.8 66.93 66.82 20.81 5.75 27.08 2.008 73.7-44.29 50.14-49.3 55.14-56.05 55.39-72.32 0.5096-27.03-24.56-45.8-50.63-38.04z"/>
  <path d="m588.1 562.3c-11.02 3.246-22.56 15.52-25.82 27.52-5.512 19.77 7.275 41.79 27.08 47.29 5.264 1.251 36.35 2.504 70.69 2.504h61.41l40.11-40.04 40.11-40.03-102.8 0.248c-56.66 0-106.3 1.251-110.8 2.504z"/>
  <path d="m467.3 722.4c-5.512 1.747-18.55 12.52-38.1 31.53l-29.58 28.77-10.53-9.009c-6.021-5.006-15.05-10.26-20.31-11.76-28.08-7.51-54.65 19.52-47.12 48.04 2.26 7.758 8.529 16.26 25.57 33.78 12.54 13.01 26.83 26.02 31.58 29.02 11.53 7.001 29.58 7.001 41.12 0 10.03-6.258 90.24-87.08 94.76-95.33 4.767-9.257 4.258-28.03-1.502-37.29-8.777-15.25-28.59-22.76-45.88-17.76z"/>
</g>
</svg>
